<?xml version="1.0" encoding="UTF-8" standalone="no"?>
<!-- Created with Inkscape (http://www.inkscape.org/) -->

<svg
   xmlns:dc="http://purl.org/dc/elements/1.1/"
   xmlns:cc="http://creativecommons.org/ns#"
   xmlns:rdf="http://www.w3.org/1999/02/22-rdf-syntax-ns#"
   xmlns:svg="http://www.w3.org/2000/svg"
   xmlns="http://www.w3.org/2000/svg"
   xmlns:sodipodi="http://sodipodi.sourceforge.net/DTD/sodipodi-0.dtd"
   xmlns:inkscape="http://www.inkscape.org/namespaces/inkscape"
   version="1.1"
   id="svg4518"
   width="431"
   height="579"
   viewBox="0 0 431 579"
   sodipodi:docname="luna-daniela-logo-removebg-preview2.svg"
   inkscape:version="0.92.3 (2405546, 2018-03-11)">
  <metadata
     id="metadata4524">
    <rdf:RDF>
      <cc:Work
         rdf:about="">
        <dc:format>image/svg+xml</dc:format>
        <dc:type
           rdf:resource="http://purl.org/dc/dcmitype/StillImage" />
        <dc:title></dc:title>
      </cc:Work>
    </rdf:RDF>
  </metadata>
  <defs
     id="defs4522" />
  <sodipodi:namedview
     pagecolor="#ffffff"
     bordercolor="#666666"
     borderopacity="1"
     objecttolerance="10"
     gridtolerance="10"
     guidetolerance="10"
     inkscape:pageopacity="0"
     inkscape:pageshadow="2"
     inkscape:window-width="1366"
     inkscape:window-height="705"
     id="namedview4520"
     showgrid="false"
     inkscape:zoom="1.5748035"
     inkscape:cx="191.85824"
     inkscape:cy="432.26397"
     inkscape:window-x="-8"
     inkscape:window-y="-8"
     inkscape:window-maximized="1"
     inkscape:current-layer="svg4518"
     inkscape:pagecheckerboard="true" />
  <g
     id="g6315">
    <path
       sodipodi:nodetypes="csscsccc"
       inkscape:connector-curvature="0"
       id="path6230-4-2"
       d="m 414.69695,559.50387 c -4.23419,-0.1517 -56.88882,-78.99838 -57.00403,-84.42446 -0.0649,-3.05871 28.09253,15.95468 62.15841,29.0061 5.24134,2.00808 11.92429,-4.47222 9.31985,13.158 0.62762,1.50211 0.41572,27.46631 0.01,30.83183 -0.74152,6.14387 -0.10541,12.00669 -1.01343,16.59108 0.82218,7.20592 -6.72208,6.08402 -7.85767,4.71562 z"
       style="fill:#ffffff;fill-opacity:1;stroke:#ffffff;stroke-width:0.76099408;stroke-opacity:1" />
    <path
       sodipodi:nodetypes="csscsccc"
       inkscape:connector-curvature="0"
       id="path6230-4"
       d="m 289.26032,558.22211 c -4.23419,-0.1517 -4.01494,-11.26241 -4.13015,-16.68849 -0.0649,-3.05871 -169.62859,-189.55798 1.44276,-35.26267 6.67378,6.01932 7.41821,33.59426 8.40587,35.95805 0.62762,1.50211 1.54116,5.4757 2.03008,8.8302 0.83003,5.69486 3.4867,4.59798 2.12966,5.59027 -1.87189,1.36876 -5.82405,3.38995 -6.95964,2.02155 z"
       style="fill:#ffffff;fill-opacity:1;stroke:#ffffff;stroke-width:0.76099408;stroke-opacity:1" />
    <path
       style="fill:#c9a84e"
       d="m 404.54398,569.64088 c -7.7,-0.42242 -29.75,-1.69568 -49,-2.82946 -19.25,-1.13377 -40.32949,-2.36481 -46.84331,-2.73564 -14.39703,-0.81961 -13.19305,1.06168 -14.62897,-22.85876 -1.75146,-29.17682 -0.89974,-26.46063 -10.91518,-34.80942 -4.7369,-3.94864 -11.98754,-10.35515 -16.11254,-14.23669 -4.125,-3.88154 -13.5009,-12.43407 -20.83534,-19.00562 -7.33444,-6.57155 -16.63719,-14.9394 -20.67279,-18.59523 -8.38823,-7.59887 -17.08051,-11.53281 -14.90609,-6.74617 0.34807,0.76622 7.23429,7.46813 15.30271,14.89313 35.38732,32.56532 50.83133,46.80042 55.33114,51 l 4.82171,4.5 0.63779,21.72361 c 0.75103,25.58072 1.78824,23.76943 -12.95824,22.62892 -26.40421,-2.04213 -41.59724,-3.0938 -98.72089,-6.83352 -7.975,-0.5221 -20.575,-1.40919 -28,-1.97132 -7.425,-0.56213 -33.975,-2.37275 -59.000004,-4.02361 -56.750503,-3.74373 -58,-3.86641 -58,-5.69474 0,-4.28344 6.588712,-24.55686 14.630476,-45.01787 l 5.576497,-14.18852 -5.043407,-15.31148 C 16.12932,381.24881 8.6126987,318.092 7.5616601,153.21702 7.3104843,113.81543 7.1674874,110.86623 5.2502933,105.5469 2.62563,98.264678 2.8536567,97.957608 16.60639,90.254173 c 10.7446,-6.018461 10.794457,-6.06391 16.101062,-14.677664 5.196278,-8.434671 7.841525,-11.228371 16.437025,-17.359491 2.313212,-1.65 6.274413,-5.082645 8.802669,-7.6281 2.528257,-2.545455 7.4043,-6.09297 10.835653,-7.883368 3.61248,-1.884905 7.713109,-5.05444 9.74096,-7.529165 3.835162,-4.68031 16.608452,-12.598222 23.176941,-14.366933 2.24521,-0.604569 5.25342,-2.020512 6.68493,-3.146539 2.0543,-1.615913 4.97919,-2.243925 13.88055,-2.980335 25.21534,-2.086069 38.45739,-0.896912 44.10664,3.960848 4.39081,3.775633 13.99452,9.073592 16.44786,9.073592 1.34181,0 2.89955,-1.478217 4.58065,-4.346806 l 2.5474,-4.346806 11.61162,-1.056118 c 6.9233,-0.6297 12.29236,-1.612819 13.29762,-2.434907 2.66899,-2.182648 9.81359,-5.8153633 11.43731,-5.8153633 0.81344,0 2.62315,-0.9 4.02157,-2 1.39842,-1.1 3.72733,-2 5.17535,-2 1.44802,0 3.92966,-0.9588386 5.51476,-2.1307524 3.15956,-2.3359588 12.44555,-4.22318 26.28126,-5.3412191 l 8.74423,-0.7066065 6.75577,3.7701264 c 3.71567,2.0735695 9.00576,5.2037864 11.75576,6.9560376 10.34848,6.5938653 20.82299,11.1563993 27.23179,11.8617443 3.42749,0.377224 8.78543,1.564444 11.90655,2.638266 7.35425,2.530233 9.14513,2.46519 16.03633,-0.582425 6.56683,-2.904165 10.34599,-2.608779 12.70605,0.993127 1.50342,2.29451 15.79307,8.541702 19.53805,8.541702 2.59609,0 3.072,0.92616 1.85189,3.603996 -1.36222,2.989744 -0.30407,4.210219 2.26125,2.608149 4.56501,-2.850894 11.09714,-0.902781 16.60614,4.952536 6.85609,7.287099 6.75546,6.221071 4.84588,51.335319 -1.39308,32.911902 1.91035,77.428712 12.94899,174.500002 6.58145,57.87581 8.86314,80.78972 11.75006,118 2.77255,35.73609 1.03421,127.11614 -2.48509,130.63545 -0.30654,0.30653 -2.50146,-0.76367 -4.87761,-2.37824 -2.37616,-1.61456 -7.02028,-4.51826 -10.32028,-6.45265 -3.3,-1.9344 -13.425,-8.13508 -22.5,-13.7793 -30.67569,-19.07882 -33.0284,-20.39686 -34.24212,-19.18314 -0.6185,0.6185 -0.92955,1.31026 -0.69121,1.53725 1.24239,1.18324 44.4638,27.65112 54.43333,33.33382 3.3,1.88103 6.53409,3.95257 7.18686,4.60343 1.97591,1.97013 4.09324,53.5771 2.24611,54.74597 -0.78813,0.49873 -1.65797,0.84435 -1.93297,0.76805 -0.275,-0.0763 -6.8,-0.48436 -14.5,-0.90678 z M 81.883434,503.8374 c 1.468419,-0.93073 -0.83486,-16.51578 -2.719331,-18.40025 -1.293181,-1.29318 -7.137224,0.16085 -7.822344,1.94624 -0.565671,1.47412 1.300481,14.87459 2.295684,16.48486 0.67676,1.09502 6.504098,1.07322 8.245991,-0.0308 z m 34.596746,-6.1844 c 0.91935,-0.89203 -0.75629,-11.8507 -2.55139,-16.68598 -0.87264,-2.35057 -5.01022,-3.09088 -7.70962,-1.37943 -1.43392,0.90911 -0.75814,13.3243 0.97909,17.98765 0.90531,2.43015 6.80654,2.4796 9.28192,0.0778 z m 32.83714,-5.80932 c 0.89507,-0.89507 -0.78093,-13.14334 -2.30933,-16.87666 -0.94834,-2.31646 -4.24897,-2.98982 -6.78208,-1.3836 -1.23779,0.78487 -0.26167,14.30998 1.37165,19.00552 0.50361,1.44779 6.06346,0.91104 7.71976,-0.74526 z m 33.14487,-5.73365 c 1.73407,-0.66542 2.06753,-5.57001 0.93865,-13.80605 -0.59392,-4.33313 -0.84261,-4.66903 -3.25,-4.38957 -2.57966,0.29945 -2.6049,0.38423 -2.41933,8.12487 0.10314,4.30225 0.72074,8.46475 1.37244,9.25 1.36301,1.64233 1.27396,1.62056 3.35824,0.82075 z m 169.40438,-10.07127 c 7.41221,-5.65356 7.34265,-11.2259 -0.20432,-16.36648 -5.10724,-3.47878 -4.48511,-4.10856 1.85675,-1.87957 11.13273,3.91284 16.40571,2.2407 19.99067,-6.33934 2.00967,-4.80981 2.48248,-4.71685 5.76861,1.13412 3.22913,5.74947 9.94532,12.12953 12.76858,12.12953 2.72511,0 2.63305,-0.21722 -2.57924,-6.08598 -2.5523,-2.87376 -6.9942,-10.05888 -10.04307,-16.24546 -6.00176,-12.17841 -9.96177,-18.04543 -11.52701,-17.07805 -2.02769,1.25318 -12.36862,-10.41282 -13.86977,-15.64702 -0.74725,-2.60551 -0.666,-2.92464 0.49853,-1.95816 1.76658,1.46613 15.03645,-2.02455 21.19406,-5.57516 11.47404,-6.61617 22.00405,-31.41059 24.70023,-58.16017 0.64393,-6.38872 -0.18842,-6.55086 -4.5308,-0.88259 -1.8402,2.40208 -6.4386,7.91458 -10.21867,12.25 -5.4753,6.2797 -8.47206,11.13612 -14.73728,23.88259 -7.80098,15.87095 -12.06306,22.64171 -13.41144,21.30545 -0.38546,-0.38199 1.37087,-4.49515 3.90297,-9.14035 5.56934,-10.21709 7.23143,-16.45413 8.57158,-32.1651 1.09229,-12.80514 1.40415,-14.21771 5.496,-24.89397 3.77378,-9.84636 3.07158,-10.70123 -3.63573,-4.42624 -9.87468,9.23819 -11.81024,14.85905 -11.81824,34.32021 -0.007,18.07487 -1.11117,26.83924 -3.84031,30.49462 -2.96187,3.9671 -4.25925,3.05984 -6.17965,-4.32147 -5.0212,-19.29958 -19.62405,-34.98945 -27.76047,-29.82692 -4.12683,2.61846 -7.79373,19.5983 -4.77365,22.10474 0.74243,0.61616 1.64677,2.7029 2.00965,4.63722 0.79317,4.22797 2.71175,5.1907 6.02197,3.02176 5.22685,-3.42476 9.69335,-0.1736 5.32554,3.87647 -1.90721,1.76846 -2.73005,3.81349 -3.26854,8.12344 -1.37025,10.96715 -2.84523,12.02229 -3.52139,2.51904 -0.55725,-7.8322 -0.80302,-8.55642 -3.81765,-11.25 -4.01604,-3.58833 -7.58888,-3.72672 -9.78246,-0.3789 -2.291,3.49651 0.18924,7.5 4.6464,7.5 4.11465,0 4.39685,1.31166 3.17421,14.75407 -1.2254,13.47284 -0.62386,16.24593 3.52409,16.24593 4.05486,0 6.6958,-2.26749 8.67406,-7.4475 1.98778,-5.20492 2.99066,-5.56279 5.75186,-2.0525 1.15043,1.46253 2.99271,2.5 4.43937,2.5 3.78944,0 7.57245,4.34703 7.19409,8.26666 -0.36626,3.79425 -2.5643,4.01888 -17.81212,1.82038 -16.50392,-2.37961 -20.92164,0.0522 -16.71557,9.20135 3.9597,8.61324 6.72763,11.07503 17.62017,15.67136 13.98779,5.90242 16.78926,9.69253 11.04338,14.94058 -6.22193,5.68286 2.61907,6.95548 9.87461,1.42141 z m 36.62741,-45.19525 c -13.30443,-12.23318 -27.45,-21.09552 -27.45,-17.19769 0,2.5759 -1.37664,14.16588 20.48453,15.81896 4.42568,0.33466 8.93236,3.18725 6.96547,1.37873 z m -257.46029,-4.66183 c 78.92135,-15.38841 131.6483,-65.77818 170.53656,-162.9773 l 4.47373,-11.18185 -0.004,-15.90275 c -0.01,-38.54644 -11.09698,-72.01542 -36.24169,-109.40276 -17.29842,-25.7208 -24.5855,-33.577485 -37.2663,-40.179268 -20.12714,-10.47843 -33.47684,-12.969256 -62.98801,-11.752483 -11,0.45354 -26.75,0.855614 -35,0.893497 -21.87373,0.100441 -21.86027,0.05253 -3.70422,13.183389 6.98732,5.053391 14.25882,10.454433 16.15889,12.002325 4.20237,3.42345 4.16893,3.44 17.6779,-8.749288 10.41236,-9.39518 12.43456,-10.084164 26.74653,-9.11282 30.87259,2.095303 57.18265,28.855278 76.6316,77.942048 l 6.23144,15.7274 3.62893,0.58021 c 9.38478,1.5005 10.03874,2.3781 3.365,4.5158 -8.19573,2.62522 -14.74986,11.79231 -21.7748,30.45585 -5.2044,13.82682 -3.41283,16.97387 9.69713,17.03381 12.38764,0.0566 13.04745,0.80335 9.89549,11.19875 -3.87026,12.76439 -4.81163,16.69517 -4.31335,18.01078 0.58652,1.54857 10.95334,1.69708 14.8572,0.21284 7.30255,-2.77643 3.76598,4.06399 -6.75716,13.06966 -8.94789,7.65756 -8.67016,7.19626 -11.06277,18.37561 -5.02556,23.48165 -16.68559,39.67419 -48.07145,66.75781 -39.00618,33.65939 -60.73765,44.35578 -137.018983,67.44177 -4.84694,1.46689 -8.440743,3.03895 -7.986228,3.49346 2.678669,2.67867 35.411811,1.65421 52.288561,-1.63649 z"
       id="path4779"
       inkscape:connector-curvature="0"
       sodipodi:nodetypes="ssssssssssscssssssscssssssssssssssccscssssscssssssscssssscccssccscsscscsccccccccscscscscsccscscsscscscscssscsssscsssssscscccssscssssssssssssssccsssssssssccsscscccssscs" />
  </g>
  <path
     sodipodi:nodetypes="ccsscscsssssssccccscssscccsscssssccsssscccssscsssccscsscsscssssssssssssscsssscssccssssscsssssssccsssssssssssssssssscsssssscsssssccsccssssscscccssscscscsscsscscccccccsccsccccsscccsccscsccsscscs"
     inkscape:connector-curvature="0"
     id="path4777"
     d="m 424.97243,514.31437 c -1.92366,-1.30716 -6.85701,-4.3821 -10.963,-6.8332 -4.106,-2.4511 -17.75123,-10.82576 -30.32274,-18.61035 -13.45915,-8.33423 -23.88509,-14.1538 -25.35699,-14.1538 -2.00328,0 -5.03941,-1.42374 -4.43085,-2.82621 2.08715,-4.80991 0.83302,-8.48359 -3.19544,-9.86224 -12.66821,-4.33541 1.07807,-10.13908 2.23313,-9.72818 8.88184,3.15963 11.66856,4.72076 15.03121,-1.94992 2.87898,-5.71121 9.93571,-4.73843 12.34423,-0.20344 2.67657,5.0397 4.21873,9.13356 7.62005,10.89245 6.36233,3.29009 6.03969,4.15604 -0.15737,-3.40896 -2.56025,-3.1254 -9.97293,-8.26147 -12.36209,-13.38652 -2.38916,-5.12506 -2.50916,-12.15134 -4.21276,-14.62744 -4.18203,-6.07837 -3.69572,-7.35437 3.91586,-2.39523 3.53455,2.30285 5.0591,-0.55919 9.33812,2.28685 v 0 l 1.65035,0.56839 c -2.17803,-1.8268 -14.4832,3.01523 -17.4796,0.40155 -6.05878,-5.28493 -6.57996,-4.09478 -7.96676,-2.70798 -0.51385,0.51385 3.09995,5.47111 4.89072,7.90619 4.82728,6.56407 -0.86416,-4.50869 -6.63978,-10.82813 -7.01642,-7.67708 -10.95303,-17.74708 0.52031,-21.28762 14.19441,-4.38023 20.07184,-10.21281 25.96927,-23.15477 5.90299,-12.95413 10.07157,-20.93048 9.938,-31.71365 l 1.96829,-1.57853 0.53219,-2.16506 c -0.93577,7.5461 -3.00491,5.09274 -7.8213,10.67495 -7.34026,8.50739 -8.9694,10.47758 -14.94807,22.6316 -3.92298,7.975 -14.87971,22.62424 -15.96285,24.16841 -3.58418,5.10977 -1.66766,-7.46947 2.54665,-15.28253 5.05646,-9.37435 2.80451,-9.52777 4.92017,-26.88588 1.47679,-12.1165 1.09576,-12.57495 4.06222,-20.3381 5.29702,-13.86219 8.01712,-10.41049 -0.11506,-3.46295 -4.18334,3.57394 -0.86925,1.32755 -7.52613,4.75147 l 0.89451,7.35039 -1.34526,19.1181 c -1.33542,18.97816 -4.34931,24.69375 -7.65727,27.68742 -2.35034,2.12703 -8.87762,0.94128 -10.71698,-6.18474 -6.27729,-24.31941 -13.51326,-18.2805 -22.03385,-22.48126 -4.69927,-2.3168 -1.78026,10.76911 0.2463,13.21095 0.69504,0.83748 -3.85347,6.00588 -3.36656,7.70366 0.88488,3.08538 8.955,7.92973 5.07729,7.77779 -9.24355,-0.3622 -12.91945,3.04905 -3.70367,4.07404 2.88517,0.32089 -0.77669,2.79284 -1.02691,7.1206 -0.1431,2.475 -1.44431,9.69672 -1.57621,15.88384 -0.20317,9.52996 3.01408,13.53635 1.66285,13.53694 -5.52808,0.002 -5.83076,3.56153 -1.6931,12.15752 3.16049,6.56591 5.57356,6.10775 16.70608,10.73278 13.08036,5.43427 12.28944,10.46547 6.61695,15.64649 -2.10101,1.91898 -2.80741,3.3221 -2.41943,4.80572 0.37629,1.43895 -0.0255,2.32445 -1.2826,2.82645 -1.00681,0.40205 -11.73057,4.23032 -23.83057,8.50724 -25.29378,8.94047 -28.99884,10.41763 -29.93694,11.93552 -1.34992,2.18421 -3.27516,0.94422 -14.08395,-9.07104 -6.03851,-5.59519 -14.85048,-13.58269 -19.58216,-17.75 -4.73168,-4.16731 -13.78926,-12.34057 -20.12795,-18.1628 -17.09414,-15.70132 -6.57916,-15.92051 -95.42055,1.98907 -41.188636,8.30324 -75.85932,15.0968 -77.045964,15.0968 -1.230773,0 -3.214373,1.35039 -4.617893,3.14376 -2.412018,3.08198 -2.482525,3.10233 -3.588595,1.03562 -2.951322,-5.51459 -14.479995,-44.5723 -19.534185,-66.17938 -1.994114,-8.525 -4.05349,-17.3 -4.576392,-19.5 C 20.684642,374.93736 16.180411,344.64097 13.628836,316.53447 10.204831,278.81785 6.9604842,167.94368 8.0305965,125.21702 8.3205386,113.64042 8.1201109,111.68785 6.2000823,107.38411 2.3941922,98.853218 2.6384166,98.490198 17.531214,90.541167 c 9.702201,-5.178551 10.101704,-5.530378 13.99793,-12.327419 4.651519,-8.114664 15.600177,-19.371403 22.285107,-22.91218 1.501349,-0.795213 4.005527,-3.07601 5.56484,-5.068439 1.593998,-2.036746 5.263882,-4.772563 8.383205,-6.249493 3.284272,-1.55503 8.064836,-5.181068 11.716054,-8.886578 5.676278,-5.760683 20.135648,-14.38004 24.12319,-14.38004 0.63984,0 2.79115,-1.104656 4.78068,-2.454792 9.18123,-6.230549 50.65894,-5.494798 57.66176,1.022831 2.9504,2.745979 15.24895,9.431961 17.34965,9.431961 0.80317,0 2.62954,-1.995143 4.0586,-4.43365 3.03297,-5.175378 3.11287,-5.206055 15.84035,-6.08192 5.36172,-0.368978 9.96462,-1.020409 10.22865,-1.447624 0.26404,-0.427216 3.07717,-2.000411 6.25141,-3.495989 3.17424,-1.495579 7.57134,-3.5803403 9.77134,-4.6328033 2.2,-1.052463 4.95181,-1.9123193 6.11514,-1.9107916 1.16333,0.00153 3.24916,-0.889237 4.63517,-1.979477 3.01324,-2.3702115 16.26346,-5.5347711 26.97333,-6.4420598 8.83052,-0.748079 7.67121,-1.1840561 26.14873,9.8336554 16.46484,9.8176043 20.15502,11.4543133 28.2053,12.5099443 3.80728,0.499249 8.89141,1.621648 11.29806,2.49422 5.93706,2.152586 12.40024,1.996517 17.12427,-0.413505 5.44145,-2.776019 9.39257,-2.603249 11.66659,0.510141 1.77176,2.42573 14.70242,8.472762 18.18702,8.505172 3.28066,0.03051 4.46195,1.526541 3.14639,3.984687 -1.68759,3.153295 0.46511,4.327962 4.29857,2.345603 7.71307,-3.988585 23.80099,10.307112 21.27332,18.903439 -2.97251,10.109196 -1.55732,82.10887 2.51101,127.75096 1.93369,21.69377 3.45079,35.92405 9.91479,93 7.20811,63.64624 9.47506,88.0598 11.97844,129 2.26444,37.03268 -0.0627,105.48661 -3.71016,109.13403 -0.46198,0.46198 -2.41387,-0.22953 -4.33752,-1.53668 z m -20.42845,-81.59735 c 0.33992,-0.55 -0.28197,-1 -1.38197,-1 -1.1,0 -2.27811,0.45 -2.61803,1 -0.33992,0.55 0.28197,1 1.38197,1 1.1,0 2.27811,-0.45 2.61803,-1 z m -277.84143,-7.9499 c 59.83429,-10.46529 100.39605,-38.28683 135.23956,-90.49708 14.48546,-21.70533 20.94397,-32.61288 33.95459,-62.949 8.60031,-20.05285 4.17598,-16.74959 3.575,-35.8754 C 298.26544,197.05687 289.91798,162.42832 265.03809,125.8923 247.18531,99.675578 243.51105,95.069999 228.39156,87.611857 205.20514,76.174459 200.35608,78.717522 151.10707,80.64422 c -40.72384,1.593181 -30.60907,-7.306793 -12.16532,6.032303 7.0125,5.07166 7.18885,9.194891 8.96343,7.480754 14.90335,-14.395679 1.20398,8.501993 20.84575,-9.629862 4.17964,-3.858347 17.52556,-5.634353 27.69164,-4.098035 31.63607,4.780904 60.47725,34.41001 78.71286,85.55902 2.33322,6.54446 2.61513,-0.13412 5.20977,5.0516 l 7.67646,11.58042 -6.07621,3.3103 c -6.86876,3.74208 -2.42365,3.21452 -8.85672,16.03758 -12.74833,25.4113 -18.61352,22.63673 -3.16219,22.63673 12.95867,0 14.65459,4.33122 9.78796,18.72863 -5.10977,15.11671 -5.11928,16.36387 8.61576,13.18001 7.474,-1.73251 8.21649,5.01603 -2.33284,15.61021 l -10.20218,10.24556 -1.6434,8.15474 c -1.44832,7.18673 -6.85956,32.90944 -42.33,62.48097 -33.39622,27.84226 -54.57915,45.54307 -116.43478,64.62943 -12.61413,3.89225 -33.882904,10.88394 -38.108571,9.8189 -2.895982,-0.72991 33.677531,0.0643 49.404061,-2.68636 z m 62.27694,-72.53653 c 8.31843,-1.74984 32.00071,-9.28826 33.83972,-10.77168 1.96013,-1.58113 -0.94815,-4.1854 -7.60407,-6.80919 -3.11914,-1.22958 -7.12245,-3.09722 -8.89625,-4.15031 l -3.22509,-1.91472 -9.06864,3.5861 c -4.98776,1.97236 -11.41147,4.12783 -14.27491,4.78995 -8.21308,1.89913 -44.10206,1.49112 -55.6397,-0.63254 -18.95638,-3.48919 -41.221808,-12.25908 -43.00033,-16.93694 -4.021186,-10.57653 -6.441265,-65.42564 -5.699488,-129.17424 l 0.628342,-54 3.653513,-16.7656 c 2.009432,-9.22109 3.341906,-17.07722 2.961052,-17.45807 -0.380853,-0.38085 -3.343573,0.765 -6.583822,2.54633 -6.527321,3.58842 -16.201035,7.16902 -19.432391,7.19265 -5.019793,0.0367 -5.19889,1.3666 -1.302292,9.67011 6.404806,13.64842 8.596468,43.0484 6.658074,89.31458 -0.679772,16.225 -1.333031,43.45 -1.451687,60.5 l -0.215739,31 -3.180093,11.41081 c -1.895503,6.80144 -2.814834,11.77607 -2.275869,12.31503 2.530786,2.53079 88.95365,23.41293 112.17416,27.10436 5.81437,0.92433 15.34619,0.56947 21.93551,-0.81663 z M 84.144248,502.22801 c -0.746024,-1.81548 -4.112118,-15.86684 -3.409524,-17.00366 1.542429,-2.4957 8.290655,-0.5432 8.315044,2.3141 0.0032,0.37321 0.712073,5.23582 1.166494,8.50722 1.219037,8.77589 -6.072014,6.18234 -6.072014,6.18234 z m 32.429612,-13.02129 c -1.95464,-8.78574 -3.61709,-9.64957 0.1721,-10.37392 5.29653,-1.0125 8.41386,-1.43259 8.3575,6.10602 -0.22134,4.44647 0.29367,7.5188 0.4405,11.2782 l -3.63768,0.30367 -5.4261,1.13231 0.0937,-8.44628 z m 34.01052,0.2603 c -1.33596,-4.20829 -2.90486,-15.35629 -2.11136,-16.14979 0.5053,-0.5053 3.24998,-0.58712 5.63423,-0.41435 l 4.335,0.31414 0.22237,1.18915 c 0.60274,3.22326 2.17993,15.17613 0.56098,16.35994 -3.96057,0.12203 -6.41031,0.9055 -8.64122,-1.29909 z m 34.51361,-5.64908 c -1.75392,-3.27723 -3.25661,-15.20103 -1.37471,-15.92318 3.0003,-1.15132 11.0906,-1.21975 11.64308,0.21999 1.8402,4.79549 1.87119,15.40428 0.0465,15.90984 -6.50877,1.80335 -9.26871,1.74805 -10.31484,-0.20665 z M 336.54398,435.1759 c -3.3,-0.75439 -12.21496,-0.31504 -13.72746,-0.33904 -3.18771,-0.0506 -2.92534,-8.24575 -0.16444,-9.72333 1.05212,-0.56308 5.37877,0.0402 6.32638,-2.44109 1.85444,-4.85578 4.906,-3.04176 6.74706,-0.0937 0.63944,1.02391 3.21527,2.37852 5.72406,3.01024 4.80888,1.21089 7.48531,2.83728 6.77254,7.8728 -0.4095,2.89305 -3.68487,3.54143 -11.67814,1.71417 z m -14.78694,-30.80515 c 0,-4.30627 -3.21236,-5.29461 -4.08962,-6.49433 -1.26347,-1.7279 4.26532,-9.88823 6.90521,-11.49364 5.48789,-3.33739 14.54808,3.33765 10.75658,7.38922 -1.24433,1.32968 -4.91358,8.83891 -5.62976,12.96671 -1.56309,9.00915 -7.94241,6.11653 -7.94241,-2.36796 z"
     style="fill:#006978" />
  <path
     style="fill:#ffffff;fill-opacity:1;stroke:none;stroke-width:0.76099408;stroke-opacity:1"
     d="m 81.524156,428.51852 c -3.095938,-0.69781 -1.810674,-1.58922 5.707455,-3.95844 32.657989,-10.2917 40.990689,-13.04319 52.625649,-17.37719 34.76329,-12.94927 54.6357,-24.78416 83.78254,-49.89615 13.50114,-11.63215 28.80616,-27.23947 34.18355,-34.8587 7.24255,-10.262 10.85601,-18.49932 14.39501,-32.81509 1.20683,-4.88179 2.84163,-9.69749 3.63288,-10.70154 0.79126,-1.00406 4.19966,-4.26147 7.57425,-7.2387 9.2081,-8.12387 13.21184,-14.80154 8.13304,-13.56476 -4.41132,1.07424 -14.62677,1.39472 -15.71333,0.49296 -1.21176,-1.00567 -0.61824,-4.24296 2.93137,-15.98889 2.2245,-7.36105 2.44004,-10.86787 0.75397,-12.26718 -0.71043,-0.58961 -4.5904,-1.19064 -9.70268,-1.50301 -4.68536,-0.28629 -9.12764,-0.78251 -9.87173,-1.10271 -1.73924,-0.74845 -2.83259,-2.81565 -2.83259,-5.35563 0,-3.29175 3.56963,-13.11556 8.11713,-22.33877 5.13074,-10.40617 6.7206,-15.21927 13.01419,-17.50048 4.4666,-1.61899 8.85736,-3.64309 6.12828,-4.24584 -0.97146,-0.21455 -3.62571,-0.82647 -5.89834,-1.3598 l -4.13204,-0.96971 -5.43722,-13.31739 c -7.19207,-17.61559 -8.54493,-20.51348 -14.10156,-30.20642 -13.42857,-23.42463 -29.46756,-39.328851 -46.12629,-45.738709 -7.85409,-3.022051 -13.29778,-3.959254 -22.99709,-3.959254 -10.17846,0 -11.46445,0.608724 -23.31082,11.034195 -5.02256,4.420134 -9.85949,8.223838 -10.74872,8.452668 -1.23102,0.31679 -5.13493,-2.2027 -16.36138,-10.559254 -8.10952,-6.036428 -15.35755,-11.669633 -16.10674,-12.518234 -1.31906,-1.494093 -1.30702,-1.560093 0.3805,-2.085956 2.80241,-0.873285 49.79208,-2.066008 66.80765,-1.695757 17.75584,0.386359 24.2487,1.64695 37.10321,7.203601 15.73573,6.80212 23.76332,13.410332 35.33401,29.08651 23.31455,31.58699 36.37468,57.85597 42.85861,86.20526 2.33758,10.22044 3.47625,21.00021 3.91636,37.07579 l 0.44794,16.36137 -3.9039,9.73244 c -22.62775,56.41108 -49.007,96.41291 -81.22954,123.17754 -26.70052,22.17792 -63.19776,38.10316 -98.45019,42.95782 -7.97926,1.09883 -37.663137,2.07375 -40.903434,1.34341 z"
     id="path6222"
     inkscape:connector-curvature="0"
     sodipodi:nodetypes="ccsscsccscscccscscccscssscscsssssscsssc" />
  <path
     style="fill:#ffffff;fill-opacity:1;stroke:#fdfdfd;stroke-width:0.76099408;stroke-opacity:1"
     d="m 340.47474,478.5002 c -0.24639,-0.39867 0.76075,-2.30835 2.23807,-4.24376 1.47733,-1.9354 2.68477,-3.74951 2.68321,-4.03137 -0.002,-0.28185 -0.6727,-1.61105 -1.4914,-2.95377 -1.16641,-1.91298 -3.67731,-3.49412 -11.60232,-7.3061 -11.93698,-5.74176 -14.71334,-7.63558 -17.80715,-13.5026 -6.28166,-11.91235 -2.47363,-14.84923 17.83228,-12.07093 11.6628,1.59573 13.01828,2.58546 14.48684,0.34415 1.03046,-1.57269 1.2163,-1.77727 0.58863,-4.08676 -0.77245,-2.84219 -4.46753,-5.66912 -7.00282,-5.67465 -0.7179,-0.002 -2.24762,-0.66289 -3.72822,-1.96288 -1.55571,-1.36593 -3.17248,-3.12091 -3.83029,-2.86849 -0.62605,0.24024 -2.0897,2.553 -3.08814,4.81064 -2.09036,4.72667 -4.86464,8.07757 -8.42316,8.07757 -3.98222,0 -3.73536,-3.5866 -2.80783,-16.77182 0.9789,-13.91544 0.78355,-14.78687 -3.55248,-15.84752 -4.04726,-0.99001 -5.69879,-3.08672 -4.63508,-5.88451 1.6861,-4.43477 6.09905,-4.3575 10.1971,0.17855 2.28525,2.5295 2.62311,3.47886 3.09626,8.70026 0.56787,6.26662 1.02,8.09036 2.00573,8.09036 0.66146,0 0.97487,-1.2582 2.32005,-9.31406 0.60638,-3.63139 1.49537,-5.93265 3.04519,-7.88285 1.73634,-2.1849 2.02958,-3.0518 1.41851,-4.19359 -0.94976,-1.77464 -3.61714,-1.84607 -7.09022,-0.18987 -3.3209,1.58363 -4.75512,1.02556 -5.44579,-2.11901 -0.30132,-1.37192 -1.23616,-3.81493 -2.07742,-5.42892 -1.3921,-2.67081 -1.45119,-3.40911 -0.65744,-8.21541 1.1226,-6.79762 2.83037,-11.00652 5.23265,-12.89615 2.55615,-2.01067 4.20356,-1.90313 8.74962,0.57114 7.01364,3.8173 13.97333,14.22533 18.11006,27.08313 2.46181,7.65179 3.60285,9.07883 5.80547,7.2606 3.67902,-3.03699 5.49727,-14.60814 5.55189,-35.3316 0.0272,-10.29902 1.06428,-16.32284 3.62423,-21.05006 2.37548,-4.38657 12.58607,-14.4532 12.94049,-12.75805 0.13192,0.63093 -1.13821,5.01028 -2.8225,9.7319 -2.10474,5.90026 -3.31873,10.89578 -3.88222,15.97522 -2.58309,23.28479 -3.55978,27.25119 -9.73283,39.52559 -3.13853,6.24059 -3.79919,8.57807 -2.42451,8.57807 1.25011,0 4.88641,-5.99894 12.22397,-20.16634 3.90192,-7.53384 8.12409,-15.23891 9.3826,-17.12237 2.68175,-4.01344 19.45193,-24.35181 20.0795,-24.35181 0.73439,0 -0.43769,10.6938 -2.00179,18.26386 -4.86021,23.52298 -13.64438,39.81476 -24.40813,45.26916 -5.30637,2.68894 -15.2329,5.33486 -18.3325,4.83187 -2.37514,-0.38543 -2.27079,-0.4209 -1.81259,1.11749 1.66733,5.5979 10.69039,15.38759 13.73723,15.38759 1.94447,0 4.92327,5.08184 11.91236,18.23958 2.8917,5.44394 7.28206,12.53274 9.75635,15.7529 2.47429,3.22016 4.2039,6.03703 3.84357,6.25972 -1.32499,0.81889 -7.58466,-4.25491 -10.83336,-8.78101 -6.501,-9.05723 -6.45007,-9.0384 -9.11444,-3.37019 -3.36942,7.16813 -7.89613,8.64104 -17.65395,5.74426 -3.148,-0.93454 -6.15046,-1.55688 -6.67214,-1.38299 -0.53743,0.17914 0.50183,1.43104 2.39795,2.88857 6.15543,4.73164 7.28786,7.51354 4.92141,12.08976 -2.43625,4.71117 -13.51902,9.7891 -15.2505,6.9875 z"
     id="path6226"
     inkscape:connector-curvature="0"
     sodipodi:nodetypes="ccccssscsccccssscssscccsccccssccsccscsscscsscssscssssccc" />
  <path
     style="fill:#ffffff;fill-opacity:1;stroke:#fefefe;stroke-width:0.76099408;stroke-opacity:1"
     d="m 73.84283,503.00611 c -0.382623,-0.73246 -1.123969,-4.39178 -1.647435,-8.13183 -0.934812,-6.67903 -0.921403,-6.82467 0.753211,-8.18069 0.937731,-0.75932 3.604068,-1.76109 4.762561,-1.76109 2.448404,0 2.346314,2.00749 3.589914,9.08144 1.13331,6.4466 2.006326,9.27703 0.582353,9.82346 -2.488512,0.95494 -7.335908,0.51771 -8.040604,-0.83129 z"
     id="path6228"
     inkscape:connector-curvature="0"
     sodipodi:nodetypes="cscsscc" />
  <path
     style="fill:#ffffff;fill-opacity:1;stroke:#ffffff;stroke-width:0.76099408;stroke-opacity:1"
     d="m 108.03498,497.94926 c -1.98913,-2.39676 -3.09796,-16.14913 -1.43607,-17.81102 0.50226,-0.50226 2.06074,-0.9132 3.46331,-0.9132 2.20713,0 2.70358,0.36732 3.69124,2.73111 0.62762,1.50211 1.54116,5.4757 2.03008,8.8302 0.83003,5.69486 0.79262,6.16952 -0.56442,7.16181 -1.87189,1.36876 -6.04855,1.3694 -7.18414,0.001 z"
     id="path6230"
     inkscape:connector-curvature="0" />
  <path
     style="fill:#ffffff;fill-opacity:1;stroke:#ffffff;stroke-width:0.76099408;stroke-opacity:1"
     d="m 141.90212,492.27388 c -0.82188,-1.32982 -2.05386,-11.4839 -1.82664,-15.05527 0.22385,-3.51844 0.35129,-3.71232 2.58327,-3.93013 3.05842,-0.29846 4.1948,0.95974 5.45706,6.84306 1.43678,6.69678 1.38371,11.70193 -0.13023,12.28288 -1.76992,0.67919 -5.62034,0.6088 -6.08346,-0.14054 z"
     id="path6232"
     inkscape:connector-curvature="0"
     sodipodi:nodetypes="sssscs" />
  <path
     style="fill:#ffffff;fill-opacity:1;stroke:#ffffff;stroke-width:0.76099408;stroke-opacity:1"
     d="m 179.12891,484.78249 c -0.31182,-0.75459 -0.74132,-4.66261 -0.95443,-8.68449 l -0.38749,-7.31252 2.01723,-0.38562 c 1.10948,-0.21209 3.13843,-0.8716 3.34616,-0.53549 0.86184,1.39448 2.51563,13.84375 1.94761,15.95357 -0.71942,2.67219 -5.07684,3.1237 -5.96908,0.96455 z"
     id="path6234"
     inkscape:connector-curvature="0"
     sodipodi:nodetypes="ccccccc" />
  <path
     style="fill:#ffffff;fill-opacity:1;stroke:#fdfdfd;stroke-width:0.13452603;stroke-opacity:1"
     d="m 386.91655,431.53531 c -1.95843,-0.44987 -3.98579,-1.32777 -6.79357,-2.9418 -12.35149,-5.69451 -18.96816,-12.49926 -18.96816,-14.98037 0,-0.59963 0.28252,-0.81441 1.05348,-0.80086 3.27218,0.0575 13.26684,6.68123 23.29494,15.43824 2.4257,2.11824 3.41955,3.10207 3.31104,3.27766 -0.11315,0.18308 -1.11536,0.18685 -1.89773,0.007 z"
     id="path6244"
     inkscape:connector-curvature="0"
     sodipodi:nodetypes="ccsccccc" />
</svg>
